<?xml version="1.0" standalone="no"?>
<!DOCTYPE svg PUBLIC "-//W3C//DTD SVG 20010904//EN"
 "http://www.w3.org/TR/2001/REC-SVG-20010904/DTD/svg10.dtd">
<svg version="1.0" xmlns="http://www.w3.org/2000/svg"
 width="708.000000pt" height="596.000000pt" viewBox="0 0 708.000000 596.000000"
 preserveAspectRatio="xMidYMid meet">

<g transform="translate(0.000000,596.000000) scale(0.100000,-0.100000)"
fill="#000000" stroke="none">
<path d="M513 5763 c20 -2 54 -2 75 0 20 2 3 4 -38 4 -41 0 -58 -2 -37 -4z"/>
<path d="M658 5753 c6 -2 18 -2 25 0 6 3 1 5 -13 5 -14 0 -19 -2 -12 -5z"/>
<path d="M708 5743 c7 -3 16 -2 19 1 4 3 -2 6 -13 5 -11 0 -14 -3 -6 -6z"/>
<path d="M375 5730 c-3 -5 -2 -10 4 -10 5 0 13 5 16 10 3 6 2 10 -4 10 -5 0
-13 -4 -16 -10z"/>
<path d="M758 5733 c7 -3 16 -2 19 1 4 3 -2 6 -13 5 -11 0 -14 -3 -6 -6z"/>
<path d="M798 5723 c7 -3 16 -2 19 1 4 3 -2 6 -13 5 -11 0 -14 -3 -6 -6z"/>
<path d="M316 5680 c-32 -36 -42 -50 -33 -50 1 0 20 20 40 45 47 56 42 59 -7
5z"/>
<path d="M905 5690 c27 -12 43 -12 25 0 -8 5 -22 9 -30 9 -10 0 -8 -3 5 -9z"/>
<path d="M1020 5650 c8 -5 20 -10 25 -10 6 0 3 5 -5 10 -8 5 -19 10 -25 10 -5
0 -3 -5 5 -10z"/>
<path d="M1070 5630 c8 -5 20 -10 25 -10 6 0 3 5 -5 10 -8 5 -19 10 -25 10 -5
0 -3 -5 5 -10z"/>
<path d="M266 5605 c-9 -26 -7 -32 5 -12 6 10 9 21 6 23 -2 3 -7 -2 -11 -11z"/>
<path d="M1179 5585 c29 -14 55 -24 58 -22 2 3 -15 12 -39 22 -69 28 -78 27
-19 0z"/>
<path d="M252 5530 c0 -19 2 -27 5 -17 2 9 2 25 0 35 -3 9 -5 1 -5 -18z"/>
<path d="M1330 5515 c25 -13 50 -24 55 -24 6 0 -10 11 -35 24 -25 13 -49 24
-55 24 -5 0 10 -11 35 -24z"/>
<path d="M297 5389 c10 -17 24 -36 32 -42 8 -7 2 7 -14 31 -32 49 -45 57 -18
11z"/>
<path d="M1647 5359 c7 -7 15 -10 18 -7 3 3 -2 9 -12 12 -14 6 -15 5 -6 -5z"/>
<path d="M1720 5325 c0 -2 18 -14 40 -25 22 -11 40 -18 40 -15 0 2 -18 14 -40
25 -22 11 -40 18 -40 15z"/>
<path d="M385 5280 c38 -39 45 -44 45 -36 0 6 -71 76 -78 76 -3 0 12 -18 33
-40z"/>
<path d="M850 5306 c0 -2 7 -7 16 -10 8 -3 12 -2 9 4 -6 10 -25 14 -25 6z"/>
<path d="M1857 5249 c7 -7 15 -10 18 -7 3 3 -2 9 -12 12 -14 6 -15 5 -6 -5z"/>
<path d="M1890 5235 c0 -2 18 -14 40 -25 22 -11 40 -18 40 -15 0 2 -18 14 -40
25 -22 11 -40 18 -40 15z"/>
<path d="M453 5223 c9 -14 87 -77 87 -70 0 3 -21 22 -47 43 -26 21 -44 33 -40
27z"/>
<path d="M2039 5150 c13 -11 27 -20 32 -20 18 0 8 10 -23 25 l-33 16 24 -21z"/>
<path d="M584 5121 c7 -11 46 -35 46 -28 0 3 -12 12 -26 22 -15 9 -23 12 -20
6z"/>
<path d="M2090 5125 c0 -2 18 -14 40 -25 22 -11 40 -18 40 -15 0 2 -18 14 -40
25 -22 11 -40 18 -40 15z"/>
<path d="M6358 5113 c34 -2 88 -2 120 0 31 2 3 3 -63 3 -66 0 -92 -1 -57 -3z"/>
<path d="M6213 5103 c9 -2 25 -2 35 0 9 3 1 5 -18 5 -19 0 -27 -2 -17 -5z"/>
<path d="M6558 5103 c6 -2 18 -2 25 0 6 3 1 5 -13 5 -14 0 -19 -2 -12 -5z"/>
<path d="M6143 5093 c9 -2 23 -2 30 0 6 3 -1 5 -18 5 -16 0 -22 -2 -12 -5z"/>
<path d="M6620 5091 c8 -5 29 -11 45 -14 l30 -6 -30 14 c-34 16 -72 21 -45 6z"/>
<path d="M6068 5083 c6 -2 18 -2 25 0 6 3 1 5 -13 5 -14 0 -19 -2 -12 -5z"/>
<path d="M5965 5065 c-27 -7 -41 -13 -30 -14 11 0 43 6 70 13 63 18 28 19 -40
1z"/>
<path d="M670 5066 c0 -3 14 -12 30 -21 17 -9 30 -13 30 -11 0 3 -13 12 -30
21 -16 9 -30 13 -30 11z"/>
<path d="M2200 5066 c0 -3 14 -12 30 -21 17 -9 30 -13 30 -11 0 3 -13 12 -30
21 -16 9 -30 13 -30 11z"/>
<path d="M5870 5046 c0 -2 9 -6 20 -9 11 -3 18 -1 14 4 -5 9 -34 13 -34 5z"/>
<path d="M5838 5033 c7 -3 16 -2 19 1 4 3 -2 6 -13 5 -11 0 -14 -3 -6 -6z"/>
<path d="M6751 5033 c0 -5 17 -21 37 -37 l37 -30 -34 37 c-36 38 -42 42 -40
30z"/>
<path d="M740 5026 c0 -3 9 -10 20 -16 11 -6 20 -8 20 -6 0 3 -9 10 -20 16
-11 6 -20 8 -20 6z"/>
<path d="M5798 5023 c7 -3 16 -2 19 1 4 3 -2 6 -13 5 -11 0 -14 -3 -6 -6z"/>
<path d="M2290 5016 c0 -3 14 -12 30 -21 17 -9 30 -13 30 -11 0 3 -13 12 -30
21 -16 9 -30 13 -30 11z"/>
<path d="M5758 5013 c7 -3 16 -2 19 1 4 3 -2 6 -13 5 -11 0 -14 -3 -6 -6z"/>
<path d="M5678 4993 c7 -3 16 -2 19 1 4 3 -2 6 -13 5 -11 0 -14 -3 -6 -6z"/>
<path d="M810 4985 c0 -2 23 -16 50 -30 28 -14 50 -23 50 -20 0 2 -22 16 -50
30 -27 14 -50 23 -50 20z"/>
<path d="M5638 4983 c7 -3 16 -2 19 1 4 3 -2 6 -13 5 -11 0 -14 -3 -6 -6z"/>
<path d="M5598 4973 c7 -3 16 -2 19 1 4 3 -2 6 -13 5 -11 0 -14 -3 -6 -6z"/>
<path d="M2380 4966 c0 -3 9 -10 20 -16 11 -6 20 -8 20 -6 0 3 -9 10 -20 16
-11 6 -20 8 -20 6z"/>
<path d="M5558 4963 c7 -3 16 -2 19 1 4 3 -2 6 -13 5 -11 0 -14 -3 -6 -6z"/>
<path d="M6830 4940 c6 -11 13 -20 16 -20 2 0 0 9 -6 20 -6 11 -13 20 -16 20
-2 0 0 -9 6 -20z"/>
<path d="M5465 4940 c-13 -5 -14 -9 -5 -9 8 0 24 4 35 9 13 5 14 9 5 9 -8 0
-24 -4 -35 -9z"/>
<path d="M2450 4926 c0 -3 14 -12 30 -21 17 -9 30 -13 30 -11 0 3 -13 12 -30
21 -16 9 -30 13 -30 11z"/>
<path d="M5418 4923 c7 -3 16 -2 19 1 4 3 -2 6 -13 5 -11 0 -14 -3 -6 -6z"/>
<path d="M995 4888 c51 -27 105 -50 105 -44 0 5 -129 66 -139 66 -3 -1 12 -10
34 -22z"/>
<path d="M5318 4893 c7 -3 16 -2 19 1 4 3 -2 6 -13 5 -11 0 -14 -3 -6 -6z"/>
<path d="M2540 4876 c0 -3 9 -10 20 -16 11 -6 20 -8 20 -6 0 3 -9 10 -20 16
-11 6 -20 8 -20 6z"/>
<path d="M5248 4873 c7 -3 16 -2 19 1 4 3 -2 6 -13 5 -11 0 -14 -3 -6 -6z"/>
<path d="M6862 4860 c0 -14 2 -19 5 -12 2 6 2 18 0 25 -3 6 -5 1 -5 -13z"/>
<path d="M5148 4843 c7 -3 16 -2 19 1 4 3 -2 6 -13 5 -11 0 -14 -3 -6 -6z"/>
<path d="M1120 4830 c8 -5 20 -10 25 -10 6 0 3 5 -5 10 -8 5 -19 10 -25 10 -5
0 -3 -5 5 -10z"/>
<path d="M2610 4836 c0 -3 9 -10 20 -16 11 -6 20 -8 20 -6 0 3 -9 10 -20 16
-11 6 -20 8 -20 6z"/>
<path d="M5035 4810 c-13 -6 -15 -9 -5 -9 8 0 22 4 30 9 18 12 2 12 -25 0z"/>
<path d="M1190 4800 c8 -5 20 -10 25 -10 6 0 3 5 -5 10 -8 5 -19 10 -25 10 -5
0 -3 -5 5 -10z"/>
<path d="M2680 4796 c0 -3 9 -10 20 -16 11 -6 20 -8 20 -6 0 3 -9 10 -20 16
-11 6 -20 8 -20 6z"/>
<path d="M4965 4790 c-13 -5 -14 -9 -5 -9 8 0 24 4 35 9 13 5 14 9 5 9 -8 0
-24 -4 -35 -9z"/>
<path d="M6861 4784 c0 -11 3 -14 6 -6 3 7 2 16 -1 19 -3 4 -6 -2 -5 -13z"/>
<path d="M1240 4780 c8 -5 20 -10 25 -10 6 0 3 5 -5 10 -8 5 -19 10 -25 10 -5
0 -3 -5 5 -10z"/>
<path d="M2730 4766 c0 -3 9 -10 20 -16 11 -6 20 -8 20 -6 0 3 -9 10 -20 16
-11 6 -20 8 -20 6z"/>
<path d="M3572 4723 c-17 -27 -43 -75 -58 -108 -15 -33 -30 -62 -34 -65 -4 -3
-10 -21 -14 -41 -5 -30 -10 -36 -25 -32 -16 4 -18 10 -10 36 5 17 23 46 41 65
32 32 32 34 13 48 -24 18 -31 11 -76 -71 -70 -127 -90 -170 -95 -207 -5 -25
-12 -38 -23 -39 -10 0 -11 -2 -3 -6 6 -2 12 -16 12 -29 l0 -24 -427 -2 -428
-3 423 -2 424 -3 -5 -48 c-3 -26 -11 -89 -18 -139 -9 -71 -9 -99 -1 -118 7
-14 12 -57 12 -94 0 -45 5 -72 13 -80 23 -18 39 -88 27 -111 -6 -11 -16 -54
-24 -96 -10 -60 -10 -92 0 -157 6 -45 15 -116 19 -157 4 -41 12 -81 17 -87 15
-19 30 -5 18 17 -10 19 -30 170 -24 181 2 4 5 53 7 108 4 108 21 154 32 85 3
-22 15 -74 25 -117 12 -48 17 -85 12 -94 -8 -13 -10 -13 -15 1 -4 9 -11 16
-16 16 -6 0 -3 -17 6 -37 14 -32 17 -84 19 -328 2 -262 1 -286 -13 -255 -8 19
-23 69 -33 110 l-19 75 0 -75 c-1 -67 3 -84 34 -149 32 -66 35 -80 35 -163 0
-58 -7 -118 -21 -170 -26 -105 -21 -146 8 -58 l21 65 2 -85 c1 -47 4 -163 6
-259 4 -145 2 -177 -11 -197 -8 -13 -15 -30 -15 -39 0 -8 -4 -15 -10 -15 -5 0
-10 -10 -10 -22 0 -13 -9 -36 -20 -53 -21 -32 -26 -65 -10 -65 6 0 10 -7 10
-15 0 -8 -4 -15 -10 -15 -5 0 -14 -8 -19 -18 -7 -13 -2 -35 19 -83 15 -37 36
-102 45 -145 9 -43 23 -104 31 -134 l13 -55 -5 55 c-9 87 -41 224 -68 291 -27
66 -26 79 4 79 20 0 30 19 30 56 0 14 7 38 15 53 8 16 11 31 8 35 -4 3 -1 6 5
6 8 0 12 -34 13 -112 0 -62 4 -176 9 -253 20 -294 22 -350 12 -337 -6 9 -11
-17 -16 -75 -4 -48 -8 -97 -9 -108 -3 -28 17 -31 24 -3 4 13 6 -13 6 -57 0
-83 20 -316 28 -324 6 -6 10 149 7 254 -2 61 0 76 8 65 9 -12 10 -6 6 25 -16
116 0 248 38 305 33 50 35 83 4 78 -14 -2 -25 -15 -33 -38 -17 -49 -22 -25
-31 145 -17 317 -24 407 -36 422 -5 6 -5 14 0 17 9 5 7 286 -3 440 -5 70 -3
90 9 100 12 9 13 25 5 96 -13 118 -13 119 5 265 9 72 17 153 18 180 3 47 4 44
18 -40 10 -63 14 -170 14 -360 0 -274 -3 -306 -43 -408 -6 -16 -11 -38 -10
-50 0 -21 1 -21 8 -2 58 143 75 283 65 540 -4 116 -8 244 -10 285 -2 75 -14
189 -35 329 -7 51 -7 81 0 95 5 12 15 39 22 61 6 22 16 45 21 51 12 16 11 105
-1 179 -6 33 -11 81 -11 106 0 67 29 228 50 274 26 56 33 92 22 99 -6 3 -21
-27 -35 -67 -31 -88 -35 -105 -42 -193 -4 -38 -9 -76 -11 -83 -3 -8 1 -66 7
-128 12 -109 12 -114 -9 -155 l-22 -43 -1 185 c0 102 -4 208 -8 235 -5 39 -3
57 11 83 10 18 20 55 22 82 2 28 8 56 14 63 5 6 17 34 24 61 15 49 40 78 55
62 4 -4 10 -75 12 -157 2 -103 7 -149 14 -146 28 9 31 76 13 300 -4 52 -4 52
27 36 21 -9 21 -9 4 5 -18 14 -18 15 0 40 10 14 27 26 38 27 13 1 15 3 5 5
-11 3 -15 18 -15 52 0 26 -4 57 -8 69 -8 23 -2 29 57 47 10 4 16 9 14 12 -3 3
-23 -2 -43 -10 -21 -9 -39 -16 -41 -16 -2 0 -11 16 -19 36 -19 47 -19 151 0
197 16 38 20 97 7 97 -10 0 -42 -116 -45 -170 -4 -44 11 -108 32 -149 9 -16 6
-23 -17 -41 l-27 -22 27 16 c26 15 28 15 38 -3 16 -31 12 -69 -7 -74 -16 -4
-16 -5 0 -6 31 -2 13 -26 -22 -29 -32 -3 -33 -3 -31 40 1 24 1 45 0 48 -1 3
-3 14 -5 25 -2 11 -9 49 -15 85 -7 36 -11 79 -10 95 7 100 5 130 -10 130 -10
0 -18 -17 -25 -47 -8 -38 -13 -46 -25 -38 -13 8 -12 15 8 49 12 22 22 49 22
59 0 11 16 40 35 65 37 48 41 57 26 57 -5 0 -23 -21 -39 -47z m-53 -247 c9
-11 10 -29 2 -72 -6 -32 -11 -77 -11 -100 0 -27 -5 -44 -14 -47 -14 -6 -14 8
-8 191 2 44 11 52 31 28z m-96 -100 c-9 -25 -20 -43 -25 -40 -10 7 24 84 38
84 2 0 -4 -20 -13 -44z m-59 -8 c-4 -13 -11 -26 -16 -29 -6 -4 -7 -16 -3 -28
6 -19 -4 -29 -17 -15 -9 8 22 94 34 94 5 0 6 -10 2 -22z m76 -47 c0 -6 -4 -13
-10 -16 -5 -3 -10 1 -10 9 0 9 5 16 10 16 6 0 10 -4 10 -9z m107 -28 c-3 -10
-5 -4 -5 12 0 17 2 24 5 18 2 -7 2 -21 0 -30z m-197 -24 c0 -5 -8 -26 -17 -47
-15 -34 -17 -35 -21 -13 -2 13 2 27 8 31 9 6 9 9 1 11 -7 3 -9 12 -6 21 7 17
35 14 35 -3z m106 -49 c0 -11 -4 -20 -8 -20 -4 0 -8 9 -8 20 0 11 4 20 8 20 4
0 8 -9 8 -20z m44 -1 c0 -5 -4 -9 -10 -9 -5 0 -10 7 -10 16 0 8 5 12 10 9 6
-3 10 -10 10 -16z m-94 -36 c-10 -10 -19 5 -10 18 6 11 8 11 12 0 2 -7 1 -15
-2 -18z m80 -41 c-11 -10 -14 3 -8 33 l7 30 3 -28 c2 -16 1 -31 -2 -35z m161
31 c-9 -9 -19 -14 -23 -11 -10 10 6 28 24 28 15 0 15 -1 -1 -17z m-240 -35
c-3 -7 -5 -2 -5 12 0 14 2 19 5 13 2 -7 2 -19 0 -25z m173 2 c0 -39 -15 -39
-16 0 -1 17 3 30 7 30 5 0 9 -13 9 -30z m-125 -32 c8 -28 15 -71 15 -94 0 -47
-23 -113 -34 -96 -11 19 -17 242 -6 242 5 0 16 -23 25 -52z m78 -13 c-8 -54
-22 -80 -23 -40 0 53 12 108 21 93 5 -7 6 -31 2 -53z m-188 -74 c-10 -50 -25
-20 -25 50 0 74 24 101 28 32 2 -26 0 -63 -3 -82z m55 37 c0 -76 -5 -72 -14
10 -4 41 -2 61 4 57 6 -3 10 -34 10 -67z m-62 -158 c0 -19 -3 -16 -13 15 -18
54 -18 91 0 45 7 -19 13 -46 13 -60z m52 -63 c0 -50 -16 -39 -24 15 -3 24 -9
58 -12 75 -3 18 -3 41 1 50 9 21 34 -80 35 -140z m40 52 c0 -11 -4 -18 -10
-14 -5 3 -7 12 -3 20 7 21 13 19 13 -6z m-70 -133 c-7 -7 -10 9 -9 45 l1 54 9
-45 c5 -28 5 -48 -1 -54z m86 -20 c-3 -11 -6 -46 -6 -76 -1 -68 -14 -43 -24
47 -7 59 -6 61 14 56 16 -4 20 -11 16 -27z m-64 -148 c-9 -9 -12 -7 -12 12 0
19 3 21 12 12 9 -9 9 -15 0 -24z m79 -186 c-17 -28 -19 114 -3 188 5 26 8 7
10 -68 1 -56 -2 -110 -7 -120z m-42 143 c0 -22 -4 -58 -8 -80 l-7 -40 -13 60
c-10 43 -10 60 -2 63 6 2 11 18 11 35 0 24 3 28 10 17 5 -8 10 -33 9 -55z m29
-260 l0 -30 -8 30 c-4 17 -8 44 -8 60 l0 30 8 -30 c4 -16 8 -43 8 -60z m10
-315 c6 -114 -7 -340 -19 -340 -5 0 -9 99 -9 227 0 176 3 224 12 215 7 -7 14
-51 16 -102z"/>
<path d="M6236 4712 c-3 -4 4 -9 15 -9 23 -2 25 3 4 10 -8 4 -16 3 -19 -1z"/>
<path d="M4561 4659 c-106 -36 -159 -59 -101 -44 49 13 245 84 230 84 -8 0
-66 -18 -129 -40z"/>
<path d="M2870 4686 c0 -3 9 -10 20 -16 11 -6 20 -8 20 -6 0 3 -9 10 -20 16
-11 6 -20 8 -20 6z"/>
<path d="M6779 4643 l-34 -38 38 34 c34 33 42 41 34 41 -2 0 -19 -17 -38 -37z"/>
<path d="M1578 4663 c7 -3 16 -2 19 1 4 3 -2 6 -13 5 -11 0 -14 -3 -6 -6z"/>
<path d="M1648 4643 c7 -3 16 -2 19 1 4 3 -2 6 -13 5 -11 0 -14 -3 -6 -6z"/>
<path d="M2940 4646 c0 -3 9 -10 20 -16 11 -6 20 -8 20 -6 0 3 -9 10 -20 16
-11 6 -20 8 -20 6z"/>
<path d="M1688 4633 c7 -3 16 -2 19 1 4 3 -2 6 -13 5 -11 0 -14 -3 -6 -6z"/>
<path d="M1728 4623 c7 -3 16 -2 19 1 4 3 -2 6 -13 5 -11 0 -14 -3 -6 -6z"/>
<path d="M2990 4616 c0 -3 14 -12 30 -21 17 -9 30 -13 30 -11 0 3 -13 12 -30
21 -16 9 -30 13 -30 11z"/>
<path d="M1808 4603 c7 -3 16 -2 19 1 4 3 -2 6 -13 5 -11 0 -14 -3 -6 -6z"/>
<path d="M6719 4593 c-13 -16 -12 -17 4 -4 9 7 17 15 17 17 0 8 -8 3 -21 -13z"/>
<path d="M1858 4593 c7 -3 16 -2 19 1 4 3 -2 6 -13 5 -11 0 -14 -3 -6 -6z"/>
<path d="M1908 4583 c6 -2 18 -2 25 0 6 3 1 5 -13 5 -14 0 -19 -2 -12 -5z"/>
<path d="M1973 4573 c9 -2 23 -2 30 0 6 3 -1 5 -18 5 -16 0 -22 -2 -12 -5z"/>
<path d="M3060 4576 c0 -3 9 -10 20 -16 11 -6 20 -8 20 -6 0 3 -9 10 -20 16
-11 6 -20 8 -20 6z"/>
<path d="M6680 4569 c0 -5 5 -7 10 -4 6 3 10 8 10 11 0 2 -4 4 -10 4 -5 0 -10
-5 -10 -11z"/>
<path d="M2063 4563 c9 -2 23 -2 30 0 6 3 -1 5 -18 5 -16 0 -22 -2 -12 -5z"/>
<path d="M2158 4553 c12 -2 30 -2 40 0 9 3 -1 5 -23 4 -22 0 -30 -2 -17 -4z"/>
<path d="M2246 4549 c3 -5 24 -9 46 -9 51 0 47 5 -10 13 -24 3 -40 1 -36 -4z"/>
<path d="M6644 4544 c-18 -14 -18 -15 4 -4 12 6 22 13 22 15 0 8 -5 6 -26 -11z"/>
<path d="M3110 4546 c0 -3 9 -10 20 -16 11 -6 20 -8 20 -6 0 3 -9 10 -20 16
-11 6 -20 8 -20 6z"/>
<path d="M2388 4533 c12 -2 30 -2 40 0 9 3 -1 5 -23 4 -22 0 -30 -2 -17 -4z"/>
<path d="M2493 4523 c9 -2 25 -2 35 0 9 3 1 5 -18 5 -19 0 -27 -2 -17 -5z"/>
<path d="M2583 4513 c9 -2 23 -2 30 0 6 3 -1 5 -18 5 -16 0 -22 -2 -12 -5z"/>
<path d="M6570 4505 c-14 -8 -20 -14 -14 -15 5 0 19 7 30 15 24 18 16 19 -16
0z"/>
<path d="M2653 4503 c9 -2 23 -2 30 0 6 3 -1 5 -18 5 -16 0 -22 -2 -12 -5z"/>
<path d="M3180 4506 c0 -3 9 -10 20 -16 11 -6 20 -8 20 -6 0 3 -9 10 -20 16
-11 6 -20 8 -20 6z"/>
<path d="M2708 4493 c6 -2 18 -2 25 0 6 3 1 5 -13 5 -14 0 -19 -2 -12 -5z"/>
<path d="M2768 4483 c7 -3 16 -2 19 1 4 3 -2 6 -13 5 -11 0 -14 -3 -6 -6z"/>
<path d="M2808 4473 c7 -3 16 -2 19 1 4 3 -2 6 -13 5 -11 0 -14 -3 -6 -6z"/>
<path d="M3230 4476 c0 -3 9 -10 20 -16 11 -6 20 -8 20 -6 0 3 -9 10 -20 16
-11 6 -20 8 -20 6z"/>
<path d="M3995 4465 c-25 -12 -26 -14 -5 -9 28 7 60 23 45 23 -5 0 -23 -6 -40
-14z"/>
<path d="M2848 4463 c7 -3 16 -2 19 1 4 3 -2 6 -13 5 -11 0 -14 -3 -6 -6z"/>
<path d="M2892 4461 c-10 -6 -7 -10 13 -15 15 -4 30 -5 33 -1 3 3 -2 5 -10 5
-9 0 -18 4 -20 10 -2 5 -9 6 -16 1z"/>
<path d="M6470 4460 c-8 -5 -10 -10 -5 -10 6 0 17 5 25 10 8 5 11 10 5 10 -5
0 -17 -5 -25 -10z"/>
<path d="M3292 4434 c10 -10 20 -15 24 -12 3 4 -5 12 -18 18 -22 12 -22 12 -6
-6z"/>
<path d="M4505 4440 c-3 -6 1 -7 9 -4 18 7 21 14 7 14 -6 0 -13 -4 -16 -10z"/>
<path d="M6420 4440 c-8 -5 -10 -10 -5 -10 6 0 17 5 25 10 8 5 11 10 5 10 -5
0 -17 -5 -25 -10z"/>
<path d="M2960 4430 c8 -5 20 -10 25 -10 6 0 3 5 -5 10 -8 5 -19 10 -25 10 -5
0 -3 -5 5 -10z"/>
<path d="M6360 4420 c-18 -12 -2 -12 25 0 13 6 15 9 5 9 -8 0 -22 -4 -30 -9z"/>
<path d="M3810 4400 c-8 -5 -10 -10 -5 -10 6 0 17 5 25 10 8 5 11 10 5 10 -5
0 -17 -5 -25 -10z"/>
<path d="M6205 4370 c-13 -5 -14 -9 -5 -9 8 0 24 4 35 9 13 5 14 9 5 9 -8 0
-24 -4 -35 -9z"/>
<path d="M3190 4340 c8 -5 20 -10 25 -10 6 0 3 5 -5 10 -8 5 -19 10 -25 10 -5
0 -3 -5 5 -10z"/>
<path d="M6048 4323 c7 -3 16 -2 19 1 4 3 -2 6 -13 5 -11 0 -14 -3 -6 -6z"/>
<path d="M4237 4313 c18 -2 50 -2 70 0 21 2 7 4 -32 4 -38 0 -55 -2 -38 -4z"/>
<path d="M5965 4310 c-16 -7 -17 -9 -3 -9 9 -1 20 4 23 9 7 11 7 11 -20 0z"/>
<path d="M6008 4313 c7 -3 16 -2 19 1 4 3 -2 6 -13 5 -11 0 -14 -3 -6 -6z"/>
<path d="M4103 4303 c9 -2 25 -2 35 0 9 3 1 5 -18 5 -19 0 -27 -2 -17 -5z"/>
<path d="M4428 4303 c12 -2 32 -2 45 0 12 2 2 4 -23 4 -25 0 -35 -2 -22 -4z"/>
<path d="M4028 4293 c6 -2 18 -2 25 0 6 3 1 5 -13 5 -14 0 -19 -2 -12 -5z"/>
<path d="M4533 4293 c9 -2 25 -2 35 0 9 3 1 5 -18 5 -19 0 -27 -2 -17 -5z"/>
<path d="M5908 4293 c6 -2 18 -2 25 0 6 3 1 5 -13 5 -14 0 -19 -2 -12 -5z"/>
<path d="M3968 4283 c6 -2 18 -2 25 0 6 3 1 5 -13 5 -14 0 -19 -2 -12 -5z"/>
<path d="M4623 4283 c9 -2 23 -2 30 0 6 3 -1 5 -18 5 -16 0 -22 -2 -12 -5z"/>
<path d="M5858 4283 c6 -2 18 -2 25 0 6 3 1 5 -13 5 -14 0 -19 -2 -12 -5z"/>
<path d="M3908 4273 c6 -2 18 -2 25 0 6 3 1 5 -13 5 -14 0 -19 -2 -12 -5z"/>
<path d="M4703 4273 c9 -2 23 -2 30 0 6 3 -1 5 -18 5 -16 0 -22 -2 -12 -5z"/>
<path d="M5793 4273 c9 -2 25 -2 35 0 9 3 1 5 -18 5 -19 0 -27 -2 -17 -5z"/>
<path d="M3848 4263 c6 -2 18 -2 25 0 6 3 1 5 -13 5 -14 0 -19 -2 -12 -5z"/>
<path d="M4773 4263 c9 -2 23 -2 30 0 6 3 -1 5 -18 5 -16 0 -22 -2 -12 -5z"/>
<path d="M5738 4263 c6 -2 18 -2 25 0 6 3 1 5 -13 5 -14 0 -19 -2 -12 -5z"/>
<path d="M3798 4253 c6 -2 18 -2 25 0 6 3 1 5 -13 5 -14 0 -19 -2 -12 -5z"/>
<path d="M4853 4253 c9 -2 23 -2 30 0 6 3 -1 5 -18 5 -16 0 -22 -2 -12 -5z"/>
<path d="M5673 4253 c9 -2 23 -2 30 0 6 3 -1 5 -18 5 -16 0 -22 -2 -12 -5z"/>
<path d="M1007 4243 c18 -2 50 -2 70 0 21 2 7 4 -32 4 -38 0 -55 -2 -38 -4z"/>
<path d="M1448 4243 c34 -2 90 -2 125 0 34 2 6 3 -63 3 -69 0 -97 -1 -62 -3z"/>
<path d="M3733 4243 c9 -2 23 -2 30 0 6 3 -1 5 -18 5 -16 0 -22 -2 -12 -5z"/>
<path d="M4933 4243 c9 -2 23 -2 30 0 6 3 -1 5 -18 5 -16 0 -22 -2 -12 -5z"/>
<path d="M5563 4243 c15 -2 37 -2 50 0 12 2 0 4 -28 4 -27 0 -38 -2 -22 -4z"/>
<path d="M883 4233 c9 -2 25 -2 35 0 9 3 1 5 -18 5 -19 0 -27 -2 -17 -5z"/>
<path d="M1858 4233 c50 -2 134 -2 185 0 50 1 9 3 -93 3 -102 0 -143 -2 -92
-3z"/>
<path d="M5028 4233 c12 -2 30 -2 40 0 9 3 -1 5 -23 4 -22 0 -30 -2 -17 -4z"/>
<path d="M5129 4227 c4 -4 64 -6 132 -5 l124 3 -132 5 c-73 3 -129 1 -124 -3z"/>
<path d="M5453 4233 c15 -2 39 -2 55 0 15 2 2 4 -28 4 -30 0 -43 -2 -27 -4z"/>
<path d="M803 4223 c9 -2 23 -2 30 0 6 3 -1 5 -18 5 -16 0 -22 -2 -12 -5z"/>
<path d="M738 4213 c6 -2 18 -2 25 0 6 3 1 5 -13 5 -14 0 -19 -2 -12 -5z"/>
<path d="M688 4203 c7 -3 16 -2 19 1 4 3 -2 6 -13 5 -11 0 -14 -3 -6 -6z"/>
<path d="M610 4190 l-25 -8 25 -1 c14 0 32 4 40 9 13 9 13 10 0 9 -8 -1 -26
-5 -40 -9z"/>
<path d="M3758 4183 c7 -3 16 -2 19 1 4 3 -2 6 -13 5 -11 0 -14 -3 -6 -6z"/>
<path d="M3798 4173 c7 -3 16 -2 19 1 4 3 -2 6 -13 5 -11 0 -14 -3 -6 -6z"/>
<path d="M3838 4163 c6 -2 18 -2 25 0 6 3 1 5 -13 5 -14 0 -19 -2 -12 -5z"/>
<path d="M490 4150 c-8 -5 -10 -10 -5 -10 6 0 17 5 25 10 8 5 11 10 5 10 -5 0
-17 -5 -25 -10z"/>
<path d="M3888 4153 c7 -3 16 -2 19 1 4 3 -2 6 -13 5 -11 0 -14 -3 -6 -6z"/>
<path d="M3938 4143 c7 -3 16 -2 19 1 4 3 -2 6 -13 5 -11 0 -14 -3 -6 -6z"/>
<path d="M445 4130 c-3 -6 1 -7 9 -4 18 7 21 14 7 14 -6 0 -13 -4 -16 -10z"/>
<path d="M3978 4133 c7 -3 16 -2 19 1 4 3 -2 6 -13 5 -11 0 -14 -3 -6 -6z"/>
<path d="M4028 4123 c7 -3 16 -2 19 1 4 3 -2 6 -13 5 -11 0 -14 -3 -6 -6z"/>
<path d="M4068 4113 c7 -3 16 -2 19 1 4 3 -2 6 -13 5 -11 0 -14 -3 -6 -6z"/>
<path d="M3180 4100 c-8 -5 -10 -10 -5 -10 6 0 17 5 25 10 8 5 11 10 5 10 -5
0 -17 -5 -25 -10z"/>
<path d="M3690 4106 c0 -3 14 -12 30 -21 17 -9 30 -13 30 -11 0 3 -13 12 -30
21 -16 9 -30 13 -30 11z"/>
<path d="M4118 4103 c7 -3 16 -2 19 1 4 3 -2 6 -13 5 -11 0 -14 -3 -6 -6z"/>
<path d="M4158 4093 c6 -2 18 -2 25 0 6 3 1 5 -13 5 -14 0 -19 -2 -12 -5z"/>
<path d="M349 4063 l-24 -28 28 24 c25 23 32 31 24 31 -2 0 -14 -12 -28 -27z"/>
<path d="M4208 4083 c7 -3 16 -2 19 1 4 3 -2 6 -13 5 -11 0 -14 -3 -6 -6z"/>
<path d="M4248 4073 c6 -2 18 -2 25 0 6 3 1 5 -13 5 -14 0 -19 -2 -12 -5z"/>
<path d="M3042 4053 c-24 -8 -41 -17 -39 -19 4 -5 97 26 97 32 0 6 -11 4 -58
-13z"/>
<path d="M3760 4066 c0 -3 9 -10 20 -16 11 -6 20 -8 20 -6 0 3 -9 10 -20 16
-11 6 -20 8 -20 6z"/>
<path d="M4305 4060 c11 -5 29 -8 40 -8 16 0 15 2 -5 8 -34 11 -60 11 -35 0z"/>
<path d="M4395 4040 c11 -5 29 -8 40 -8 16 0 15 2 -5 8 -34 11 -60 11 -35 0z"/>
<path d="M3810 4036 c0 -3 9 -10 20 -16 11 -6 20 -8 20 -6 0 3 -9 10 -20 16
-11 6 -20 8 -20 6z"/>
<path d="M313 4013 c-3 -10 -8 -22 -11 -27 -3 -5 0 -6 5 -3 11 7 25 47 17 47
-3 0 -7 -8 -11 -17z"/>
<path d="M2960 4020 c-8 -5 -10 -10 -5 -10 6 0 17 5 25 10 8 5 11 10 5 10 -5
0 -17 -5 -25 -10z"/>
<path d="M4468 4023 c6 -2 18 -2 25 0 6 3 1 5 -13 5 -14 0 -19 -2 -12 -5z"/>
<path d="M4518 4013 c7 -3 16 -2 19 1 4 3 -2 6 -13 5 -11 0 -14 -3 -6 -6z"/>
<path d="M3860 4006 c0 -3 9 -10 20 -16 11 -6 20 -8 20 -6 0 3 -9 10 -20 16
-11 6 -20 8 -20 6z"/>
<path d="M4558 4003 c7 -3 16 -2 19 1 4 3 -2 6 -13 5 -11 0 -14 -3 -6 -6z"/>
<path d="M2880 3990 c-8 -5 -10 -10 -5 -10 6 0 17 5 25 10 8 5 11 10 5 10 -5
0 -17 -5 -25 -10z"/>
<path d="M4608 3993 c7 -3 16 -2 19 1 4 3 -2 6 -13 5 -11 0 -14 -3 -6 -6z"/>
<path d="M4655 3980 c11 -5 29 -8 40 -8 16 0 15 2 -5 8 -34 11 -60 11 -35 0z"/>
<path d="M3910 3976 c0 -3 9 -10 20 -16 11 -6 20 -8 20 -6 0 3 -9 10 -20 16
-11 6 -20 8 -20 6z"/>
<path d="M2795 3960 c-8 -13 5 -13 25 0 13 8 13 10 -2 10 -9 0 -20 -4 -23 -10z"/>
<path d="M4745 3960 c11 -5 29 -8 40 -8 16 0 15 2 -5 8 -34 11 -60 11 -35 0z"/>
<path d="M290 3931 c0 -11 4 -22 9 -25 4 -3 6 6 3 19 -5 30 -12 33 -12 6z"/>
<path d="M3974 3935 c11 -8 22 -12 25 -9 6 6 -19 24 -34 24 -5 -1 -1 -7 9 -15z"/>
<path d="M4868 3933 c7 -3 16 -2 19 1 4 3 -2 6 -13 5 -11 0 -14 -3 -6 -6z"/>
<path d="M4908 3923 c7 -3 16 -2 19 1 4 3 -2 6 -13 5 -11 0 -14 -3 -6 -6z"/>
<path d="M2645 3901 c-22 -11 -35 -19 -30 -19 14 -1 93 36 80 37 -5 0 -28 -8
-50 -18z"/>
<path d="M4010 3916 c0 -3 9 -10 20 -16 11 -6 20 -8 20 -6 0 3 -9 10 -20 16
-11 6 -20 8 -20 6z"/>
<path d="M4958 3913 c7 -3 16 -2 19 1 4 3 -2 6 -13 5 -11 0 -14 -3 -6 -6z"/>
<path d="M4998 3903 c7 -3 16 -2 19 1 4 3 -2 6 -13 5 -11 0 -14 -3 -6 -6z"/>
<path d="M5038 3893 c7 -3 16 -2 19 1 4 3 -2 6 -13 5 -11 0 -14 -3 -6 -6z"/>
<path d="M301 3880 c0 -8 4 -22 9 -30 12 -18 12 -2 0 25 -6 13 -9 15 -9 5z"/>
<path d="M4075 3875 c11 -9 29 -21 40 -26 l20 -10 -20 16 c-11 9 -29 21 -40
26 l-20 10 20 -16z"/>
<path d="M5080 3886 c0 -2 9 -6 20 -9 11 -3 18 -1 14 4 -5 9 -34 13 -34 5z"/>
<path d="M2545 3861 c-22 -11 -35 -19 -30 -19 14 -1 93 36 80 37 -5 0 -28 -8
-50 -18z"/>
<path d="M5178 3863 c7 -3 16 -2 19 1 4 3 -2 6 -13 5 -11 0 -14 -3 -6 -6z"/>
<path d="M5228 3853 c7 -3 16 -2 19 1 4 3 -2 6 -13 5 -11 0 -14 -3 -6 -6z"/>
<path d="M5278 3843 c7 -3 16 -2 19 1 4 3 -2 6 -13 5 -11 0 -14 -3 -6 -6z"/>
<path d="M2470 3830 c-8 -5 -10 -10 -5 -10 6 0 17 5 25 10 8 5 11 10 5 10 -5
0 -17 -5 -25 -10z"/>
<path d="M4140 3836 c0 -3 9 -10 20 -16 11 -6 20 -8 20 -6 0 3 -9 10 -20 16
-11 6 -20 8 -20 6z"/>
<path d="M5328 3833 c6 -2 18 -2 25 0 6 3 1 5 -13 5 -14 0 -19 -2 -12 -5z"/>
<path d="M5370 3826 c0 -2 11 -6 25 -8 13 -3 22 -1 19 3 -5 9 -44 13 -44 5z"/>
<path d="M4190 3811 c0 -5 5 -13 10 -16 6 -3 10 -2 10 4 0 5 -4 13 -10 16 -5
3 -10 2 -10 -4z"/>
<path d="M5438 3813 c7 -3 16 -2 19 1 4 3 -2 6 -13 5 -11 0 -14 -3 -6 -6z"/>
<path d="M330 3806 c0 -2 8 -10 18 -17 15 -13 16 -12 3 4 -13 16 -21 21 -21
13z"/>
<path d="M5488 3803 c6 -2 18 -2 25 0 6 3 1 5 -13 5 -14 0 -19 -2 -12 -5z"/>
<path d="M2370 3790 c-8 -5 -10 -10 -5 -10 6 0 17 5 25 10 8 5 11 10 5 10 -5
0 -17 -5 -25 -10z"/>
<path d="M5538 3793 c6 -2 18 -2 25 0 6 3 1 5 -13 5 -14 0 -19 -2 -12 -5z"/>
<path d="M5588 3783 c6 -2 18 -2 25 0 6 3 1 5 -13 5 -14 0 -19 -2 -12 -5z"/>
<path d="M5648 3773 c7 -3 16 -2 19 1 4 3 -2 6 -13 5 -11 0 -14 -3 -6 -6z"/>
<path d="M394 3737 c21 -19 53 -42 70 -52 44 -25 31 -14 -44 40 -46 33 -54 36
-26 12z"/>
<path d="M2300 3760 c-8 -5 -10 -10 -5 -10 6 0 17 5 25 10 8 5 11 10 5 10 -5
0 -17 -5 -25 -10z"/>
<path d="M5698 3763 c7 -3 16 -2 19 1 4 3 -2 6 -13 5 -11 0 -14 -3 -6 -6z"/>
<path d="M4270 3757 c0 -3 24 -20 53 -37 28 -18 45 -25 37 -18 -19 18 -90 61
-90 55z"/>
<path d="M5748 3753 c7 -3 16 -2 19 1 4 3 -2 6 -13 5 -11 0 -14 -3 -6 -6z"/>
<path d="M2240 3735 c-14 -8 -20 -14 -15 -14 6 0 21 6 35 14 14 8 21 14 15 14
-5 0 -21 -6 -35 -14z"/>
<path d="M5788 3743 c7 -3 16 -2 19 1 4 3 -2 6 -13 5 -11 0 -14 -3 -6 -6z"/>
<path d="M5828 3733 c7 -3 16 -2 19 1 4 3 -2 6 -13 5 -11 0 -14 -3 -6 -6z"/>
<path d="M5878 3723 c7 -3 16 -2 19 1 4 3 -2 6 -13 5 -11 0 -14 -3 -6 -6z"/>
<path d="M2180 3710 c-8 -5 -10 -10 -5 -10 6 0 17 5 25 10 8 5 11 10 5 10 -5
0 -17 -5 -25 -10z"/>
<path d="M5918 3713 c7 -3 16 -2 19 1 4 3 -2 6 -13 5 -11 0 -14 -3 -6 -6z"/>
<path d="M5965 3700 c11 -5 27 -9 35 -9 9 0 8 4 -5 9 -11 5 -27 9 -35 9 -9 0
-8 -4 5 -9z"/>
<path d="M2100 3675 c-14 -8 -20 -14 -15 -14 6 0 21 6 35 14 14 8 21 14 15 14
-5 0 -21 -6 -35 -14z"/>
<path d="M4395 3674 c29 -23 55 -36 55 -27 0 4 -17 16 -38 26 -30 14 -33 14
-17 1z"/>
<path d="M4795 3675 c11 -9 29 -21 40 -26 l20 -10 -20 16 c-11 9 -29 21 -40
26 l-20 10 20 -16z"/>
<path d="M6028 3683 c7 -3 16 -2 19 1 4 3 -2 6 -13 5 -11 0 -14 -3 -6 -6z"/>
<path d="M520 3656 c0 -2 7 -7 16 -10 8 -3 12 -2 9 4 -6 10 -25 14 -25 6z"/>
<path d="M2020 3640 c-19 -11 -30 -19 -25 -19 6 0 26 8 45 19 19 11 31 19 25
19 -5 0 -26 -8 -45 -19z"/>
<path d="M5117 3619 c7 -7 15 -10 18 -7 3 3 -2 9 -12 12 -14 6 -15 5 -6 -5z"/>
<path d="M4505 3605 c11 -9 29 -21 40 -26 l20 -10 -20 16 c-11 9 -29 21 -40
26 l-20 10 20 -16z"/>
<path d="M640 3595 c14 -8 30 -14 35 -14 6 0 -1 6 -15 14 -14 8 -29 14 -35 14
-5 0 1 -6 15 -14z"/>
<path d="M1800 3535 c-69 -35 -120 -64 -115 -64 6 0 66 29 135 64 69 35 121
64 115 64 -5 0 -66 -29 -135 -64z"/>
<path d="M6320 3580 c8 -5 20 -10 25 -10 6 0 3 5 -5 10 -8 5 -19 10 -25 10 -5
0 -3 -5 5 -10z"/>
<path d="M6367 3559 c7 -7 15 -10 18 -7 3 3 -2 9 -12 12 -14 6 -15 5 -6 -5z"/>
<path d="M750 3546 c0 -2 7 -7 16 -10 8 -3 12 -2 9 4 -6 10 -25 14 -25 6z"/>
<path d="M830 3505 c14 -8 30 -14 35 -14 6 0 -1 6 -15 14 -14 8 -29 14 -35 14
-5 0 1 -6 15 -14z"/>
<path d="M6460 3516 c0 -3 9 -10 20 -16 11 -6 20 -8 20 -6 0 3 -9 10 -20 16
-11 6 -20 8 -20 6z"/>
<path d="M930 3460 c8 -5 20 -10 25 -10 6 0 3 5 -5 10 -8 5 -19 10 -25 10 -5
0 -3 -5 5 -10z"/>
<path d="M6540 3466 c0 -2 8 -10 18 -17 15 -13 16 -12 3 4 -13 16 -21 21 -21
13z"/>
<path d="M1620 3450 c-8 -5 -10 -10 -5 -10 6 0 17 5 25 10 8 5 11 10 5 10 -5
0 -17 -5 -25 -10z"/>
<path d="M1030 3420 c8 -5 20 -10 25 -10 6 0 3 5 -5 10 -8 5 -19 10 -25 10 -5
0 -3 -5 5 -10z"/>
<path d="M1540 3420 c-18 -12 -2 -12 25 0 13 6 15 9 5 9 -8 0 -22 -4 -30 -9z"/>
<path d="M6605 3410 c10 -11 20 -20 23 -20 3 0 -3 9 -13 20 -10 11 -20 20 -23
20 -3 0 3 -9 13 -20z"/>
<path d="M1118 3393 c7 -3 16 -2 19 1 4 3 -2 6 -13 5 -11 0 -14 -3 -6 -6z"/>
<path d="M1435 3390 c-25 -11 1 -11 35 0 20 6 21 8 5 8 -11 0 -29 -3 -40 -8z"/>
<path d="M1158 3383 c7 -3 16 -2 19 1 4 3 -2 6 -13 5 -11 0 -14 -3 -6 -6z"/>
<path d="M1380 3380 l-25 -8 28 -1 c15 -1 27 4 27 9 0 6 -1 10 -2 9 -2 -1 -14
-5 -28 -9z"/>
<path d="M1213 3373 c9 -2 23 -2 30 0 6 3 -1 5 -18 5 -16 0 -22 -2 -12 -5z"/>
<path d="M6630 3376 c0 -2 8 -10 18 -17 15 -13 16 -12 3 4 -13 16 -21 21 -21
13z"/>
<path d="M4870 3366 c0 -2 14 -14 30 -26 17 -12 30 -19 30 -16 0 2 -13 14 -30
26 -16 12 -30 19 -30 16z"/>
<path d="M6674 3262 c1 -34 4 -62 9 -62 9 0 8 79 -2 104 -4 12 -7 -5 -7 -42z"/>
<path d="M4970 3296 c0 -3 15 -15 33 -27 23 -17 28 -18 18 -6 -14 18 -51 42
-51 33z"/>
<path d="M5040 3246 c0 -2 8 -10 18 -17 15 -13 16 -12 3 4 -13 16 -21 21 -21
13z"/>
<path d="M5080 3216 c0 -2 8 -10 18 -17 15 -13 16 -12 3 4 -13 16 -21 21 -21
13z"/>
<path d="M5120 3186 c0 -2 8 -10 18 -17 15 -13 16 -12 3 4 -13 16 -21 21 -21
13z"/>
<path d="M6665 3170 c-4 -12 -23 -41 -43 -64 -36 -41 -36 -41 -3 -11 33 30 66
83 58 92 -3 2 -8 -5 -12 -17z"/>
<path d="M5160 3156 c0 -2 8 -10 18 -17 15 -13 16 -12 3 4 -13 16 -21 21 -21
13z"/>
<path d="M5200 3126 c0 -2 14 -14 30 -26 17 -12 30 -19 30 -16 0 2 -13 14 -30
26 -16 12 -30 19 -30 16z"/>
<path d="M5292 3057 c15 -12 42 -31 60 -41 l33 -18 -25 21 c-14 12 -41 30 -60
41 l-35 20 27 -23z"/>
<path d="M6500 3030 c-8 -5 -10 -10 -5 -10 6 0 17 5 25 10 8 5 11 10 5 10 -5
0 -17 -5 -25 -10z"/>
<path d="M6428 3003 c7 -3 16 -2 19 1 4 3 -2 6 -13 5 -11 0 -14 -3 -6 -6z"/>
<path d="M5390 2996 c0 -3 9 -10 20 -16 11 -6 20 -8 20 -6 0 3 -9 10 -20 16
-11 6 -20 8 -20 6z"/>
<path d="M6348 2983 c7 -3 16 -2 19 1 4 3 -2 6 -13 5 -11 0 -14 -3 -6 -6z"/>
<path d="M6275 2970 c-25 -11 1 -11 35 0 20 6 21 8 5 8 -11 0 -29 -3 -40 -8z"/>
<path d="M6228 2953 c7 -3 16 -2 19 1 4 3 -2 6 -13 5 -11 0 -14 -3 -6 -6z"/>
<path d="M6188 2943 c7 -3 16 -2 19 1 4 3 -2 6 -13 5 -11 0 -14 -3 -6 -6z"/>
<path d="M6148 2933 c7 -3 16 -2 19 1 4 3 -2 6 -13 5 -11 0 -14 -3 -6 -6z"/>
<path d="M5530 2920 c8 -5 20 -10 25 -10 6 0 3 5 -5 10 -8 5 -19 10 -25 10 -5
0 -3 -5 5 -10z"/>
<path d="M6108 2923 c7 -3 16 -2 19 1 4 3 -2 6 -13 5 -11 0 -14 -3 -6 -6z"/>
<path d="M6068 2913 c7 -3 16 -2 19 1 4 3 -2 6 -13 5 -11 0 -14 -3 -6 -6z"/>
<path d="M6018 2903 c7 -3 16 -2 19 1 4 3 -2 6 -13 5 -11 0 -14 -3 -6 -6z"/>
<path d="M5620 2890 c14 -4 36 -8 50 -8 22 0 22 1 -5 8 -16 4 -39 8 -50 8 -16
0 -15 -2 5 -8z"/>
<path d="M5968 2893 c7 -3 16 -2 19 1 4 3 -2 6 -13 5 -11 0 -14 -3 -6 -6z"/>
<path d="M5903 2883 c9 -2 23 -2 30 0 6 3 -1 5 -18 5 -16 0 -22 -2 -12 -5z"/>
<path d="M5737 2873 c18 -2 50 -2 70 0 21 2 7 4 -32 4 -38 0 -55 -2 -38 -4z"/>
<path d="M410 1250 c0 -27 5 -50 10 -50 6 0 10 15 10 33 l0 32 26 -32 c14 -18
30 -33 35 -33 5 0 9 23 9 50 0 28 -4 50 -10 50 -5 0 -10 -15 -10 -32 l-1 -33
-27 33 c-15 18 -30 32 -34 32 -5 0 -8 -22 -8 -50z"/>
<path d="M520 1250 c0 -27 5 -50 10 -50 6 0 10 23 10 50 0 28 -4 50 -10 50 -5
0 -10 -22 -10 -50z"/>
<path d="M560 1250 c0 -52 13 -67 24 -27 l7 22 16 -22 c8 -13 22 -23 30 -23
11 0 10 6 -6 28 -19 27 -19 30 -4 45 27 26 6 33 -22 7 l-25 -23 0 21 c0 12 -4
22 -10 22 -5 0 -10 -22 -10 -50z"/>
<path d="M678 1289 c-21 -12 -24 -59 -6 -77 18 -18 53 -15 71 6 22 24 21 38
-3 62 -22 22 -37 24 -62 9z m52 -24 c10 -12 10 -18 0 -30 -25 -30 -61 -7 -46
30 3 8 12 15 19 15 8 0 20 -7 27 -15z"/>
<path d="M776 1293 c-3 -3 -6 -26 -6 -50 0 -43 0 -43 35 -43 19 0 35 5 35 10
0 6 -9 10 -20 10 -16 0 -20 7 -20 34 0 34 -11 52 -24 39z"/>
<path d="M850 1250 l0 -50 41 0 c24 0 38 4 34 10 -3 6 -17 10 -31 10 -13 0
-24 5 -24 10 0 6 11 10 25 10 14 0 25 5 25 10 0 6 -11 10 -25 10 -14 0 -25 5
-25 10 0 6 11 10 25 10 14 0 25 5 25 10 0 6 -16 10 -35 10 l-35 0 0 -50z"/>
<path d="M930 1290 c0 -5 7 -10 15 -10 11 0 15 -11 15 -40 0 -22 5 -40 10 -40
6 0 10 18 10 40 0 29 4 40 15 40 8 0 15 5 15 10 0 6 -18 10 -40 10 -22 0 -40
-4 -40 -10z"/>
<path d="M1028 1255 c-12 -24 -18 -48 -14 -52 5 -5 11 -2 13 5 5 14 53 17 53
2 0 -5 7 -10 14 -10 12 0 11 9 -6 50 -11 28 -25 50 -29 50 -5 0 -19 -20 -31
-45z m36 0 c3 -9 0 -15 -9 -15 -9 0 -12 6 -9 15 4 8 7 15 9 15 2 0 5 -7 9 -15z"/>
<path d="M1156 1293 c-3 -3 -6 -26 -6 -50 0 -32 4 -43 15 -43 8 0 15 7 15 15
0 8 4 15 9 15 5 0 14 -7 21 -15 14 -17 60 -21 60 -5 0 6 11 10 25 10 14 0 25
-4 25 -10 0 -5 7 -10 14 -10 12 0 11 9 -6 50 -11 28 -25 50 -29 50 -5 0 -19
-20 -31 -45 -12 -25 -25 -45 -28 -45 -4 0 -13 11 -20 25 -12 22 -11 27 5 45
24 27 7 26 -22 -2 -19 -18 -23 -19 -23 -5 0 18 -14 30 -24 20z m148 -38 c3 -9
0 -15 -9 -15 -9 0 -12 6 -9 15 4 8 7 15 9 15 2 0 5 -7 9 -15z"/>
<path d="M1372 1288 c-19 -19 -14 -37 13 -44 33 -8 32 -28 0 -21 -16 3 -24 0
-22 -7 2 -6 17 -11 33 -11 22 0 30 5 32 23 2 12 -1 22 -5 22 -5 0 -18 7 -29
16 -18 15 -18 15 9 9 29 -6 38 9 11 19 -22 8 -28 8 -42 -6z"/>
<path d="M1445 1291 c-3 -5 7 -11 21 -13 l27 -3 -26 -31 c-15 -18 -27 -35 -27
-38 0 -3 21 -6 46 -6 27 0 43 4 39 10 -3 6 -15 10 -26 10 -24 0 -24 12 1 35
31 28 25 45 -14 45 -19 0 -37 -4 -41 -9z"/>
<path d="M1540 1262 c0 -21 5 -43 12 -50 18 -18 56 -14 68 7 13 25 13 68 0 76
-6 4 -10 -6 -10 -22 0 -37 -14 -57 -34 -50 -10 4 -16 19 -16 42 0 19 -4 35
-10 35 -5 0 -10 -17 -10 -38z"/>
<path d="M1650 1249 l0 -50 38 3 c36 3 37 4 37 41 0 41 -15 57 -54 57 -18 0
-21 -6 -21 -51z m50 21 c0 -5 -7 -10 -15 -10 -8 0 -15 5 -15 10 0 6 7 10 15
10 8 0 15 -4 15 -10z m10 -40 c0 -5 -9 -10 -20 -10 -11 0 -20 5 -20 10 0 6 9
10 20 10 11 0 20 -4 20 -10z"/>
<path d="M1758 1255 c-12 -24 -18 -48 -14 -52 5 -5 11 -2 13 5 5 14 53 17 53
2 0 -5 7 -10 14 -10 12 0 11 9 -6 50 -11 28 -25 50 -29 50 -5 0 -19 -20 -31
-45z m36 0 c3 -9 0 -15 -9 -15 -9 0 -12 6 -9 15 4 8 7 15 9 15 2 0 5 -7 9 -15z"/>
<path d="M412 1078 c-2 -34 1 -38 21 -37 15 1 17 3 5 6 -10 2 -18 17 -21 36
-4 31 -4 31 -5 -5z"/>
<path d="M460 1075 c0 -32 2 -35 28 -34 23 2 24 2 5 6 -27 5 -30 20 -5 26 16
4 16 5 0 6 -26 2 -22 19 5 24 19 4 18 4 -5 6 -26 1 -28 -2 -28 -34z"/>
<path d="M532 1075 c0 -22 2 -32 5 -22 2 9 7 17 10 17 3 0 12 -8 20 -17 13
-16 13 -16 3 5 -9 18 -8 27 2 40 10 14 8 13 -9 -1 -21 -18 -21 -18 -26 0 -3
10 -5 0 -5 -22z"/>
<path d="M605 1079 c-9 -17 -14 -33 -11 -37 3 -3 6 0 6 6 0 16 33 15 49 0 10
-11 11 -10 6 5 -4 9 -16 17 -27 17 -10 0 -16 5 -13 10 4 6 11 8 16 5 5 -3 6 1
3 9 -8 22 -11 20 -29 -15z"/>
<path d="M670 1073 c0 -27 3 -34 9 -24 7 11 13 12 23 3 11 -9 14 -5 13 21 0
25 -5 33 -22 35 -20 3 -23 -1 -23 -35z m40 12 c0 -8 -7 -15 -15 -15 -8 0 -15
7 -15 15 0 8 7 15 15 15 8 0 15 -7 15 -15z"/>
<path d="M753 1103 c9 -2 23 -2 30 0 6 3 -1 5 -18 5 -16 0 -22 -2 -12 -5z"/>
<path d="M848 1080 c9 -16 20 -30 23 -30 8 0 31 51 25 57 -2 2 -7 -5 -11 -16
-8 -27 -22 -27 -30 -1 -3 11 -10 20 -15 20 -5 0 -1 -13 8 -30z"/>
<path d="M930 1075 c0 -30 3 -35 23 -34 16 1 18 2 5 6 -10 2 -18 8 -18 13 0 5
8 11 18 13 16 4 16 5 0 6 -10 0 -18 5 -18 10 0 5 8 12 18 14 13 4 11 5 -5 6
-20 1 -23 -4 -23 -34z"/>
<path d="M990 1075 c0 -30 3 -35 24 -35 14 0 27 4 30 9 3 4 -6 6 -19 3 -22 -4
-25 -1 -25 23 0 24 3 27 25 23 13 -3 22 -1 19 3 -3 5 -16 9 -30 9 -21 0 -24
-5 -24 -35z"/>
<path d="M1129 1094 c-16 -19 -1 -48 27 -51 15 -2 14 -1 -3 7 -13 5 -23 16
-23 25 0 9 10 20 23 25 15 6 17 9 6 9 -9 1 -22 -6 -30 -15z"/>
<path d="M1261 1073 c2 -31 3 -33 6 -10 3 18 9 25 16 20 7 -4 6 0 -2 10 -19
24 -21 22 -20 -20z"/>
<path d="M1311 1087 c-1 -20 -5 -26 -13 -21 -8 5 -7 0 2 -11 14 -18 15 -18 18
3 2 12 1 30 -1 40 -3 10 -5 6 -6 -11z"/>
<path d="M1430 1075 c0 -32 2 -35 28 -34 23 2 24 2 5 6 -27 5 -30 20 -5 26 16
4 16 5 0 6 -26 2 -22 19 5 24 19 4 18 4 -5 6 -26 1 -28 -2 -28 -34z"/>
<path d="M1495 1099 c-4 -6 -4 -13 -1 -16 3 -4 6 -1 6 5 0 6 8 13 18 15 15 4
15 5 0 6 -9 0 -20 -4 -23 -10z"/>
<path d="M1557 1102 c6 -4 13 -21 16 -37 l4 -30 2 32 c0 17 7 34 14 36 6 3 -1
6 -18 6 -16 0 -25 -3 -18 -7z"/>
<path d="M1610 1075 c0 -32 2 -35 28 -34 23 2 24 2 5 6 -27 5 -30 20 -5 26 16
4 16 5 0 6 -26 2 -22 19 5 24 19 4 18 4 -5 6 -26 1 -28 -2 -28 -34z"/>
<path d="M1677 1102 c6 -4 13 -21 16 -37 l4 -30 2 32 c0 17 7 34 14 36 6 3 -1
6 -18 6 -16 0 -25 -3 -18 -7z"/>
<path d="M1796 1101 c-3 -4 6 -6 19 -3 14 2 25 6 25 8 0 8 -39 4 -44 -5z"/>
<path d="M1873 1103 c9 -2 23 -2 30 0 6 3 -1 5 -18 5 -16 0 -22 -2 -12 -5z"/>
<path d="M1931 1075 c1 -33 2 -36 8 -15 l7 25 15 -22 c20 -33 29 -28 28 15 -1
36 -2 36 -8 7 l-6 -29 -22 29 -22 30 0 -40z"/>
<path d="M2010 1075 c0 -30 3 -35 23 -34 16 1 18 2 5 6 -10 2 -18 8 -18 13 0
5 8 11 18 13 16 4 16 5 0 6 -10 0 -18 5 -18 10 0 5 8 12 18 14 13 4 11 5 -5 6
-20 1 -23 -4 -23 -34z"/>
<path d="M2078 1103 c7 -3 16 -2 19 1 4 3 -2 6 -13 5 -11 0 -14 -3 -6 -6z"/>
<path d="M1737 1090 c6 -8 12 -23 14 -34 3 -14 7 -10 16 14 9 25 9 29 -1 21
-9 -7 -17 -7 -26 2 -12 10 -12 9 -3 -3z"/>
<path d="M757 1072 c-24 -26 -21 -32 11 -31 24 2 25 2 4 6 -23 4 -23 5 -6 24
9 10 15 19 12 19 -3 0 -12 -8 -21 -18z"/>
<path d="M1094 1082 c-6 -4 -8 -16 -4 -27 6 -17 7 -16 12 8 3 15 5 27 4 27 0
0 -6 -4 -12 -8z"/>
<path d="M1207 1075 c3 -8 9 -12 14 -9 12 7 11 11 -5 17 -10 4 -13 1 -9 -8z"/>
<path d="M1364 1082 c-6 -4 -8 -16 -4 -27 6 -17 7 -16 12 8 3 15 5 27 4 27 0
0 -6 -4 -12 -8z"/>
<path d="M1877 1072 c-24 -26 -21 -32 11 -31 24 2 25 2 4 6 -23 4 -23 5 -6 24
9 10 15 19 12 19 -3 0 -12 -8 -21 -18z"/>
<path d="M1520 1073 c15 -7 12 -21 -5 -26 -11 -4 -10 -4 2 -3 21 2 25 28 5 32
-7 1 -8 0 -2 -3z"/>
<path d="M1798 1048 c6 -6 18 -8 28 -6 14 3 12 5 -9 10 -19 3 -25 2 -19 -4z"/>
<path d="M2080 1050 c-13 -8 -12 -10 3 -10 9 0 17 5 17 10 0 12 -1 12 -20 0z"/>
<path d="M627 943 c-14 -13 -7 -31 14 -36 12 -3 18 -10 14 -17 -4 -6 -13 -9
-21 -6 -8 3 -14 1 -14 -5 0 -6 10 -9 22 -7 32 4 35 36 6 47 -17 7 -19 10 -5
10 9 1 17 6 17 11 0 11 -23 14 -33 3z"/>
<path d="M685 940 c-3 -5 1 -10 9 -10 19 0 20 -13 6 -41 -6 -10 -8 -19 -6 -19
10 0 37 61 31 70 -8 13 -32 13 -40 0z"/>
<path d="M747 943 c-14 -13 -6 -21 14 -16 19 5 20 4 10 -15 -16 -31 -13 -51 4
-22 20 35 19 60 -3 60 -10 0 -22 -3 -25 -7z"/>
<path d="M914 942 c-6 -4 -11 -22 -12 -40 -2 -30 0 -33 20 -30 18 2 23 10 25
35 1 31 -15 48 -33 35z m20 -23 c-3 -5 -10 -7 -15 -3 -5 3 -7 10 -3 15 3 5 10
7 15 3 5 -3 7 -10 3 -15z m6 -29 c0 -5 -7 -10 -15 -10 -8 0 -15 5 -15 10 0 6
7 10 15 10 8 0 15 -4 15 -10z"/>
<path d="M1069 939 c-10 -6 -8 -9 10 -9 l24 0 -21 -23 c-29 -31 -28 -37 6 -36
17 1 20 3 9 6 -15 4 -16 6 -2 26 8 12 15 24 15 28 0 12 -26 17 -41 8z"/>
<path d="M1130 931 c0 -10 7 -21 15 -25 20 -7 19 -24 -2 -29 -17 -4 -17 -5 0
-6 26 -2 34 29 12 45 -17 13 -17 14 -1 14 9 0 14 5 11 10 -11 17 -35 11 -35
-9z"/>
<path d="M1195 934 c-18 -19 -19 -36 -3 -52 18 -18 36 -15 48 7 20 38 -16 74
-45 45z m35 -30 c0 -15 -6 -24 -15 -24 -15 0 -21 40 -9 53 12 11 24 -3 24 -29z"/>
<path d="M470 921 c-13 -26 -13 -31 5 -31 8 0 15 -5 15 -12 0 -9 3 -9 11 -1 8
8 16 9 29 1 26 -17 49 -3 46 26 -1 15 -6 29 -11 34 -4 4 -5 1 -1 -5 4 -8 1
-13 -8 -13 -8 0 -17 6 -19 13 -3 6 -6 2 -6 -10 -1 -17 -7 -21 -31 -21 -25 1
-28 4 -19 20 5 10 7 18 5 18 -3 0 -10 -9 -16 -19z m100 -31 c0 -5 -6 -10 -14
-10 -8 0 -18 5 -21 10 -3 6 3 10 14 10 12 0 21 -4 21 -10z"/>
<path d="M835 930 c-8 -14 3 -30 21 -30 17 0 19 -17 2 -23 -9 -3 -8 -4 1 -3
19 1 35 30 28 50 -7 18 -42 22 -52 6z m35 -10 c0 -5 -7 -10 -15 -10 -8 0 -15
5 -15 10 0 6 7 10 15 10 8 0 15 -4 15 -10z"/>
<path d="M970 921 c0 -13 8 -21 23 -24 22 -4 22 -4 -3 -15 l-25 -12 25 3 c21
2 25 7 25 32 0 23 -5 31 -22 33 -17 3 -23 -2 -23 -17z m40 -1 c0 -5 -7 -10
-15 -10 -8 0 -15 5 -15 10 0 6 7 10 15 10 8 0 15 -4 15 -10z"/>
<path d="M415 910 c-8 -13 9 -20 24 -11 10 6 9 10 -3 14 -8 3 -18 2 -21 -3z"/>
<path d="M1455 700 c-3 -5 -1 -10 4 -10 6 0 11 5 11 10 0 6 -2 10 -4 10 -3 0
-8 -4 -11 -10z"/>
<path d="M410 630 c0 -52 13 -67 24 -27 l7 22 16 -22 c16 -23 57 -31 68 -13 9
14 52 12 58 -2 2 -7 8 -10 11 -6 10 8 -30 98 -43 98 -5 0 -17 -20 -27 -45 -9
-25 -20 -45 -24 -45 -4 0 -15 11 -23 24 -14 21 -14 25 1 39 26 26 4 33 -23 7
l-25 -23 0 21 c0 12 -4 22 -10 22 -5 0 -10 -22 -10 -50z m149 -9 c-15 -5 -22
6 -14 19 6 9 10 9 16 -1 5 -8 4 -15 -2 -18z"/>
<path d="M620 670 c0 -5 7 -10 15 -10 10 0 15 -10 15 -31 0 -27 -3 -31 -21
-26 -13 3 -19 1 -16 -6 2 -7 15 -12 28 -12 22 0 24 5 27 48 3 45 2 47 -22 47
-15 0 -26 -4 -26 -10z"/>
<path d="M700 633 c-23 -52 -21 -60 9 -41 17 11 25 11 42 0 12 -7 23 -12 25
-9 7 6 -36 97 -46 97 -5 0 -18 -21 -30 -47z m40 -3 c0 -5 -4 -10 -10 -10 -5 0
-10 5 -10 10 0 6 5 10 10 10 6 0 10 -4 10 -10z"/>
<path d="M830 665 c-10 -12 -10 -18 0 -30 7 -8 19 -15 26 -15 8 0 14 -5 14
-11 0 -7 -10 -9 -26 -5 -19 5 -25 3 -22 -6 6 -18 46 -22 64 -8 20 18 17 29
-11 42 -30 14 -33 33 -4 25 13 -3 19 -1 16 6 -6 18 -42 20 -57 2z"/>
<path d="M910 670 c0 -5 5 -10 10 -10 6 0 10 -18 10 -40 0 -29 4 -40 15 -40
11 0 15 11 15 40 0 30 4 40 16 40 8 0 12 5 9 10 -3 6 -22 10 -41 10 -19 0 -34
-4 -34 -10z"/>
<path d="M1000 630 c0 -27 5 -50 10 -50 6 0 10 7 10 15 0 8 4 15 9 15 5 0 14
-7 21 -15 20 -24 25 -18 25 25 0 44 -14 60 -52 60 -21 0 -23 -5 -23 -50z m58
13 c2 -8 -5 -13 -17 -13 -12 0 -21 6 -21 16 0 18 31 15 38 -3z"/>
<path d="M1095 671 c-3 -5 7 -11 21 -13 l27 -3 -26 -31 c-15 -18 -27 -35 -27
-38 0 -10 108 -7 115 4 9 14 52 12 58 -2 2 -7 8 -10 11 -6 10 8 -30 98 -43 98
-5 0 -17 -20 -26 -45 -16 -41 -20 -44 -44 -38 -36 8 -37 10 -13 36 12 13 22
29 22 35 0 14 -66 16 -75 3z m144 -50 c-15 -5 -22 6 -14 19 6 9 10 9 16 -1 5
-8 4 -15 -2 -18z"/>
<path d="M1296 673 c-3 -3 -6 -26 -6 -50 0 -43 0 -43 35 -43 19 0 35 5 35 10
0 6 -9 10 -20 10 -16 0 -20 7 -20 34 0 34 -11 52 -24 39z"/>
<path d="M1370 630 c0 -27 5 -50 10 -50 6 0 10 23 10 50 0 28 -4 50 -10 50 -5
0 -10 -22 -10 -50z"/>
<path d="M1417 674 c-11 -11 -8 -94 3 -94 6 0 10 11 10 25 0 14 4 25 9 25 5 0
16 -11 25 -25 25 -38 36 -30 36 25 0 28 -4 50 -10 50 -5 0 -10 -14 -10 -30 l0
-30 -28 31 c-15 17 -31 27 -35 23z"/>
<path d="M1530 665 c-10 -12 -10 -18 0 -30 7 -8 19 -15 26 -15 8 0 14 -5 14
-11 0 -7 -10 -9 -26 -5 -19 5 -25 3 -22 -6 6 -18 46 -22 64 -8 20 18 17 29
-11 42 -30 14 -33 33 -4 25 13 -3 19 -1 16 6 -6 18 -42 20 -57 2z"/>
<path d="M1610 630 c0 -52 13 -67 24 -27 l7 22 16 -22 c8 -13 22 -23 30 -23
11 0 10 6 -6 28 -19 27 -19 30 -4 45 27 26 6 33 -22 7 l-25 -23 0 21 c0 12 -4
22 -10 22 -5 0 -10 -22 -10 -50z"/>
<path d="M1728 635 c-12 -24 -18 -48 -14 -52 5 -5 11 -2 13 5 5 14 53 17 53 2
0 -5 7 -10 14 -10 12 0 11 9 -6 50 -11 28 -25 50 -29 50 -5 0 -19 -20 -31 -45z
m36 0 c3 -9 0 -15 -9 -15 -9 0 -12 6 -9 15 4 8 7 15 9 15 2 0 5 -7 9 -15z"/>
<path d="M412 448 c-2 -34 1 -38 21 -37 15 1 17 3 5 6 -10 2 -18 17 -21 36 -4
31 -4 31 -5 -5z"/>
<path d="M460 445 c0 -32 2 -35 28 -34 23 2 24 2 5 6 -27 5 -30 20 -5 26 16 4
16 5 0 6 -26 2 -22 19 5 24 19 4 18 4 -5 6 -26 1 -28 -2 -28 -34z"/>
<path d="M532 445 c0 -22 2 -32 5 -22 2 9 7 17 10 17 3 0 12 -8 20 -17 13 -16
13 -16 3 5 -9 18 -8 27 2 40 10 14 8 13 -9 -1 -21 -18 -21 -18 -26 0 -3 10 -5
0 -5 -22z"/>
<path d="M605 449 c-9 -17 -14 -33 -11 -37 3 -3 6 0 6 6 0 16 33 15 49 0 10
-11 11 -10 6 5 -4 9 -16 17 -27 17 -10 0 -16 5 -13 10 4 6 11 8 16 5 5 -3 6 1
3 9 -8 22 -11 20 -29 -15z"/>
<path d="M670 443 c0 -27 3 -34 9 -24 7 11 13 12 23 3 11 -9 14 -5 13 21 0 25
-5 33 -22 35 -20 3 -23 -1 -23 -35z m40 12 c0 -8 -7 -15 -15 -15 -8 0 -15 7
-15 15 0 8 7 15 15 15 8 0 15 -7 15 -15z"/>
<path d="M753 473 c9 -2 23 -2 30 0 6 3 -1 5 -18 5 -16 0 -22 -2 -12 -5z"/>
<path d="M848 450 c9 -16 20 -30 23 -30 8 0 31 51 25 57 -2 2 -7 -5 -11 -16
-8 -27 -22 -27 -30 -1 -3 11 -10 20 -15 20 -5 0 -1 -13 8 -30z"/>
<path d="M930 445 c0 -30 3 -35 23 -34 16 1 18 2 5 6 -10 2 -18 8 -18 13 0 5
8 11 18 13 16 4 16 5 0 6 -10 0 -18 5 -18 10 0 5 8 12 18 14 13 4 11 5 -5 6
-20 1 -23 -4 -23 -34z"/>
<path d="M990 445 c0 -30 3 -35 24 -35 14 0 27 4 30 9 3 4 -6 6 -19 3 -22 -4
-25 -1 -25 23 0 24 3 27 25 23 13 -3 22 -1 19 3 -3 5 -16 9 -30 9 -21 0 -24
-5 -24 -35z"/>
<path d="M1129 464 c-16 -19 -1 -48 27 -51 15 -2 14 -1 -3 7 -13 5 -23 16 -23
25 0 9 10 20 23 25 15 6 17 9 6 9 -9 1 -22 -6 -30 -15z"/>
<path d="M1261 443 c2 -31 3 -33 6 -10 3 18 9 25 16 20 7 -4 6 0 -2 10 -19 24
-21 22 -20 -20z"/>
<path d="M1311 457 c-1 -20 -5 -26 -13 -21 -8 5 -7 0 2 -11 14 -18 15 -18 18
3 2 12 1 30 -1 40 -3 10 -5 6 -6 -11z"/>
<path d="M1430 445 c0 -32 2 -35 28 -34 23 2 24 2 5 6 -27 5 -30 20 -5 26 16
4 16 5 0 6 -26 2 -22 19 5 24 19 4 18 4 -5 6 -26 1 -28 -2 -28 -34z"/>
<path d="M1495 469 c-4 -6 -4 -13 -1 -16 3 -4 6 -1 6 5 0 6 8 13 18 15 15 4
15 5 0 6 -9 0 -20 -4 -23 -10z"/>
<path d="M1557 472 c6 -4 13 -21 16 -37 l4 -30 2 32 c0 17 7 34 14 36 6 3 -1
6 -18 6 -16 0 -25 -3 -18 -7z"/>
<path d="M1610 445 c0 -32 2 -35 28 -34 23 2 24 2 5 6 -27 5 -30 20 -5 26 16
4 16 5 0 6 -26 2 -22 19 5 24 19 4 18 4 -5 6 -26 1 -28 -2 -28 -34z"/>
<path d="M1677 472 c6 -4 13 -21 16 -37 l4 -30 2 32 c0 17 7 34 14 36 6 3 -1
6 -18 6 -16 0 -25 -3 -18 -7z"/>
<path d="M1796 471 c-3 -4 6 -6 19 -3 14 2 25 6 25 8 0 8 -39 4 -44 -5z"/>
<path d="M1873 473 c9 -2 23 -2 30 0 6 3 -1 5 -18 5 -16 0 -22 -2 -12 -5z"/>
<path d="M1931 445 c1 -33 2 -36 8 -15 l7 25 15 -22 c20 -33 29 -28 28 15 -1
36 -2 36 -8 7 l-6 -29 -22 29 -22 30 0 -40z"/>
<path d="M2010 445 c0 -30 3 -35 23 -34 16 1 18 2 5 6 -10 2 -18 8 -18 13 0 5
8 11 18 13 16 4 16 5 0 6 -10 0 -18 5 -18 10 0 5 8 12 18 14 13 4 11 5 -5 6
-20 1 -23 -4 -23 -34z"/>
<path d="M2078 473 c7 -3 16 -2 19 1 4 3 -2 6 -13 5 -11 0 -14 -3 -6 -6z"/>
<path d="M1737 460 c6 -8 12 -23 14 -34 3 -14 7 -10 16 14 9 25 9 29 -1 21 -9
-7 -17 -7 -26 2 -12 10 -12 9 -3 -3z"/>
<path d="M757 442 c-24 -26 -21 -32 11 -31 24 2 25 2 4 6 -23 4 -23 5 -6 24 9
10 15 19 12 19 -3 0 -12 -8 -21 -18z"/>
<path d="M1094 452 c-6 -4 -8 -16 -4 -27 6 -17 7 -16 12 8 3 15 5 27 4 27 0 0
-6 -4 -12 -8z"/>
<path d="M1207 445 c3 -8 9 -12 14 -9 12 7 11 11 -5 17 -10 4 -13 1 -9 -8z"/>
<path d="M1364 452 c-6 -4 -8 -16 -4 -27 6 -17 7 -16 12 8 3 15 5 27 4 27 0 0
-6 -4 -12 -8z"/>
<path d="M1877 442 c-24 -26 -21 -32 11 -31 24 2 25 2 4 6 -23 4 -23 5 -6 24
9 10 15 19 12 19 -3 0 -12 -8 -21 -18z"/>
<path d="M1520 443 c15 -7 12 -21 -5 -26 -11 -4 -10 -4 2 -3 21 2 25 28 5 32
-7 1 -8 0 -2 -3z"/>
<path d="M1798 418 c6 -6 18 -8 28 -6 14 3 12 5 -9 10 -19 3 -25 2 -19 -4z"/>
<path d="M2080 420 c-13 -8 -12 -10 3 -10 9 0 17 5 17 10 0 12 -1 12 -20 0z"/>
<path d="M4766 395 c-11 -16 -12 -25 -5 -25 12 0 38 29 39 43 0 16 -18 6 -34
-18z"/>
</g>
</svg>
